<svg width="172" height="195" viewBox="0 0 172 195" fill="none" xmlns="http://www.w3.org/2000/svg">
<path d="M147.492 29.267C185.492 54.067 159.992 83.6004 142.492 95.267C145.992 82.267 140.492 71.7671 133.992 72.7671C127.492 73.7671 108.492 74.7671 105.992 74.7671C103.992 74.7671 108.159 83.1004 110.492 87.2671C135.692 116.067 106.992 141.6 89.4923 150.767L103.5 169.5C105.167 175.244 102.478 188.206 91 190.5C75.9923 193.5 82 177.5 87 173.5L75.9923 154.267H65L66.5 173.5C65.5 179.333 60.6 190.9 49 190.5C37.4 190.1 43.4949 179 47.9923 173.5V154.267L44.9923 150.767C3.3923 141.567 1.32564 105.934 5.4923 89.2671C9.4923 97.6671 22.159 96.7671 27.9923 95.267C72.3923 83.667 78.4923 105.767 75.9923 114.267C73.4923 122.767 47.159 121.434 37.4923 114.267C39.0923 124.267 50.4923 128.767 55.9923 129.767C91.9923 131.767 91.659 113.267 86.9923 103.767L61.4923 67.2671C14.4923 1.76706 98.9923 3.26706 108.492 4.26706C117.992 5.26706 115.992 30.767 127.992 29.267C137.592 28.067 144.992 28.767 147.492 29.267Z" stroke="black" stroke-width="8"/>
</svg>
