<svg width="172" height="195" viewBox="0 0 172 195" fill="none" xmlns="http://www.w3.org/2000/svg">
<path d="M147.492 29.267C185.492 54.067 159.992 83.6004 142.492 95.267C145.992 82.267 140.492 71.7671 133.992 72.7671C127.492 73.7671 108.492 74.7671 105.992 74.7671C103.992 74.7671 108.159 83.1004 110.492 87.2671C135.692 116.067 106.992 141.6 89.4923 150.767L103.5 169.5C105.167 175.244 102.478 188.206 91 190.5C75.9923 193.5 82 177.5 87 173.5L75.9923 154.267H65L66.5 173.5C65.5 179.333 60.6 190.9 49 190.5C37.4 190.1 43.4949 179 47.9923 173.5V154.267L44.9923 150.767C3.3923 141.567 1.32564 105.934 5.4923 89.2671C9.4923 97.6671 22.159 96.7671 27.9923 95.267C72.3923 83.667 78.4923 105.767 75.9923 114.267C73.4923 122.767 47.159 121.434 37.4923 114.267C39.0923 124.267 50.4923 128.767 55.9923 129.767C91.9923 131.767 91.659 113.267 86.9923 103.767L61.4923 67.2671C14.4923 1.76706 98.9923 3.26706 108.492 4.26706C117.992 5.26706 115.992 30.767 127.992 29.267C137.592 28.067 144.992 28.767 147.492 29.267Z" stroke="url(#paint0_linear)" stroke-width="8"/>
<mask id="path-2-inside-1" fill="white">
<path fill-rule="evenodd" clip-rule="evenodd" d="M84 47C90.6274 47 96 41.6274 96 35C96 28.3726 90.6274 23 84 23C77.3726 23 72 28.3726 72 35C72 41.6274 77.3726 47 84 47ZM88.5 42.5C91.8137 42.5 94.5 39.8137 94.5 36.5C94.5 33.1863 91.8137 30.5 88.5 30.5C85.1863 30.5 82.5 33.1863 82.5 36.5C82.5 39.8137 85.1863 42.5 88.5 42.5Z"/>
</mask>
<path fill-rule="evenodd" clip-rule="evenodd" d="M84 47C90.6274 47 96 41.6274 96 35C96 28.3726 90.6274 23 84 23C77.3726 23 72 28.3726 72 35C72 41.6274 77.3726 47 84 47ZM88.5 42.5C91.8137 42.5 94.5 39.8137 94.5 36.5C94.5 33.1863 91.8137 30.5 88.5 30.5C85.1863 30.5 82.5 33.1863 82.5 36.5C82.5 39.8137 85.1863 42.5 88.5 42.5Z" fill="url(#paint1_linear)"/>
<path d="M94 35C94 40.5228 89.5228 45 84 45V49C91.732 49 98 42.732 98 35H94ZM84 25C89.5228 25 94 29.4772 94 35H98C98 27.268 91.732 21 84 21V25ZM74 35C74 29.4772 78.4772 25 84 25V21C76.268 21 70 27.268 70 35H74ZM84 45C78.4772 45 74 40.5228 74 35H70C70 42.732 76.268 49 84 49V45ZM92.5 36.5C92.5 38.7091 90.7091 40.5 88.5 40.5V44.5C92.9183 44.5 96.5 40.9183 96.5 36.5H92.5ZM88.5 32.5C90.7091 32.5 92.5 34.2909 92.5 36.5H96.5C96.5 32.0817 92.9183 28.5 88.5 28.5V32.5ZM84.5 36.5C84.5 34.2909 86.2909 32.5 88.5 32.5V28.5C84.0817 28.5 80.5 32.0817 80.5 36.5H84.5ZM88.5 40.5C86.2909 40.5 84.5 38.7091 84.5 36.5H80.5C80.5 40.9183 84.0817 44.5 88.5 44.5V40.5Z" fill="url(#paint2_linear)" mask="url(#path-2-inside-1)"/>
<mask id="path-4-inside-2" fill="white">
<path fill-rule="evenodd" clip-rule="evenodd" d="M111 53C117.627 53 123 47.6274 123 41C123 34.3726 117.627 29 111 29C104.373 29 99 34.3726 99 41C99 47.6274 104.373 53 111 53ZM106 46C109.314 46 112 43.3137 112 40C112 36.6863 109.314 34 106 34C102.686 34 100 36.6863 100 40C100 43.3137 102.686 46 106 46Z"/>
</mask>
<path fill-rule="evenodd" clip-rule="evenodd" d="M111 53C117.627 53 123 47.6274 123 41C123 34.3726 117.627 29 111 29C104.373 29 99 34.3726 99 41C99 47.6274 104.373 53 111 53ZM106 46C109.314 46 112 43.3137 112 40C112 36.6863 109.314 34 106 34C102.686 34 100 36.6863 100 40C100 43.3137 102.686 46 106 46Z" fill="url(#paint3_linear)"/>
<path d="M121 41C121 46.5228 116.523 51 111 51V55C118.732 55 125 48.732 125 41H121ZM111 31C116.523 31 121 35.4772 121 41H125C125 33.268 118.732 27 111 27V31ZM101 41C101 35.4772 105.477 31 111 31V27C103.268 27 97 33.268 97 41H101ZM111 51C105.477 51 101 46.5228 101 41H97C97 48.732 103.268 55 111 55V51ZM110 40C110 42.2091 108.209 44 106 44V48C110.418 48 114 44.4183 114 40H110ZM106 36C108.209 36 110 37.7909 110 40H114C114 35.5817 110.418 32 106 32V36ZM102 40C102 37.7909 103.791 36 106 36V32C101.582 32 98 35.5817 98 40H102ZM106 44C103.791 44 102 42.2091 102 40H98C98 44.4183 101.582 48 106 48V44Z" fill="url(#paint4_linear)" mask="url(#path-4-inside-2)"/>
<path d="M146 29C139.197 31.9621 129.5 34.5 135.796 47.8182C142.092 61.1364 129.333 69.25 121 75" stroke="url(#paint5_linear)" stroke-width="4"/>
<defs>
<linearGradient id="paint0_linear" x1="85.6138" y1="4" x2="85.6138" y2="190.872" gradientUnits="userSpaceOnUse">
<stop stop-color="#426F77"/>
<stop offset="1" stop-color="#41636D"/>
</linearGradient>
<linearGradient id="paint1_linear" x1="84" y1="23" x2="84" y2="47" gradientUnits="userSpaceOnUse">
<stop stop-color="#426F77"/>
<stop offset="1" stop-color="#41636D"/>
</linearGradient>
<linearGradient id="paint2_linear" x1="84" y1="23" x2="84" y2="47" gradientUnits="userSpaceOnUse">
<stop stop-color="#426F77"/>
<stop offset="1" stop-color="#41636D"/>
</linearGradient>
<linearGradient id="paint3_linear" x1="111" y1="29" x2="111" y2="53" gradientUnits="userSpaceOnUse">
<stop stop-color="#426F77"/>
<stop offset="1" stop-color="#41636D"/>
</linearGradient>
<linearGradient id="paint4_linear" x1="111" y1="29" x2="111" y2="53" gradientUnits="userSpaceOnUse">
<stop stop-color="#426F77"/>
<stop offset="1" stop-color="#41636D"/>
</linearGradient>
<linearGradient id="paint5_linear" x1="133.5" y1="29" x2="133.5" y2="75" gradientUnits="userSpaceOnUse">
<stop stop-color="#426F77"/>
<stop offset="1" stop-color="#41636D"/>
</linearGradient>
</defs>
</svg>
