<svg width="172" height="195" viewBox="0 0 172 195" fill="none" xmlns="http://www.w3.org/2000/svg">
<path d="M132.542 33.4011C135.089 33.2317 137.252 33.2828 138.887 33.4082C138.76 33.481 138.634 33.5553 138.507 33.6316C137.222 34.4026 136.164 35.2244 135.403 36.2278C134.02 38.0539 133.191 41.0817 135.527 47.1591C138.262 54.2761 136.841 60.1188 133.845 64.8386C133.116 65.9862 132.293 67.0697 131.417 68.092C129.998 68.3547 127.69 68.6291 125.064 68.8851C127.08 67.0293 129.005 64.9999 130.468 62.695C132.889 58.8803 134.009 54.3586 131.793 48.5942C129.178 41.7902 129.686 37.15 132.215 33.8122C132.322 33.6717 132.431 33.5347 132.542 33.4011Z" fill="url(#paint0_linear)"/>
<path fill-rule="evenodd" clip-rule="evenodd" d="M96 35C96 41.6274 90.6274 47 84 47C77.3726 47 72 41.6274 72 35C72 28.3726 77.3726 23 84 23C90.6274 23 96 28.3726 96 35ZM94.5 36.5C94.5 39.8137 91.8137 42.5 88.5 42.5C85.1863 42.5 82.5 39.8137 82.5 36.5C82.5 33.1863 85.1863 30.5 88.5 30.5C91.8137 30.5 94.5 33.1863 94.5 36.5Z" fill="url(#paint1_linear)"/>
<path fill-rule="evenodd" clip-rule="evenodd" d="M123 41C123 47.6274 117.627 53 111 53C104.373 53 99 47.6274 99 41C99 34.3726 104.373 29 111 29C117.627 29 123 34.3726 123 41ZM112 40C112 43.3137 109.314 46 106 46C102.686 46 100 43.3137 100 40C100 36.6863 102.686 34 106 34C109.314 34 112 36.6863 112 40Z" fill="url(#paint2_linear)"/>
<path fill-rule="evenodd" clip-rule="evenodd" d="M108.911 0.289043C106.25 0.00889179 98.9285 -0.26833 90.1844 0.493084C81.4646 1.25239 70.9445 3.07463 62.1103 7.20625C53.2457 11.352 45.4765 18.1453 43.7231 29.0127C42.0111 39.623 46.2661 52.9026 58.2275 69.5783L83.5288 105.794C85.4654 109.899 86.0434 115.045 83.4487 118.81C80.8523 122.577 73.8766 126.71 56.4741 125.787C54.5296 125.405 51.7151 124.505 49.0277 123C52.4075 123.682 55.9493 124.071 59.3476 124.141C63.6592 124.23 67.969 123.81 71.5092 122.668C74.8617 121.586 78.6304 119.473 79.8298 115.396C81.493 109.741 80.2333 100.3 71.9995 94.0444C63.7908 87.8082 49.6524 85.475 26.9881 91.3951C24.4422 92.0487 20.3696 92.5635 16.6289 92.021C12.8503 91.473 10.2784 90.014 9.10376 87.5473L4.31384 77.4885L1.61176 88.2969C-0.632477 97.2738 -1.21149 111.272 4.40237 124.391C10.0046 137.482 21.6256 149.317 42.8125 154.37L43.9923 155.747V172.117C41.787 175.032 39.2451 179.215 38.5236 183.2C38.0983 185.549 38.1888 188.553 40.2485 191.015C42.2808 193.444 45.4295 194.379 48.8622 194.498C56.2378 194.752 61.4894 191.12 64.8727 186.806C68.1689 182.602 69.8568 177.593 70.4425 174.176L70.5266 173.685L69.3241 158.267H73.6729L82.0593 172.92C81.2196 174.009 80.4699 175.221 79.8446 176.443C78.6456 178.785 77.6732 181.61 77.5045 184.382C77.3376 187.126 77.9553 190.555 80.8875 192.831C83.7096 195.023 87.5779 195.263 91.7841 194.422C99.075 192.965 103.533 188.065 105.831 182.927C108.053 177.959 108.479 172.306 107.342 168.385L107.139 167.687L95.4143 152.007C103.865 146.866 113.725 138.671 119.497 128.329C122.903 122.229 124.953 115.254 124.288 107.699C123.631 100.23 120.352 92.572 113.785 84.9581C112.786 83.1518 111.528 80.717 110.599 78.5947C117.427 78.2635 129.523 77.5017 134.601 76.7206C135.182 76.6312 136.866 76.9262 138.31 80.3293C139.659 83.5089 140.185 88.4523 138.63 94.2271L135.866 104.492L144.711 98.5953C153.797 92.538 165.405 81.5954 169.615 68.4086C171.764 61.6784 171.994 54.3076 168.896 46.8645C165.822 39.4776 159.636 32.4159 149.678 25.9173L149.033 25.496L148.277 25.3447C145.301 24.7496 137.465 24.0519 127.496 25.298C126.728 25.394 126.248 25.2668 125.886 25.0862C125.479 24.8829 124.985 24.488 124.418 23.7324C123.199 22.1095 122.2 19.6156 121.084 16.3948C120.93 15.949 120.772 15.4864 120.611 15.0126C119.708 12.3616 118.685 9.35588 117.39 6.92549C115.877 4.08485 113.333 0.754528 108.911 0.289043ZM109.457 75.3809C109.456 75.374 109.455 75.3699 109.455 75.3699C109.455 75.3699 109.454 75.3761 109.456 75.3913C109.457 75.4016 109.459 75.4159 109.462 75.4342C109.46 75.4094 109.459 75.3915 109.457 75.3809ZM64.7422 64.9351C53.2149 48.8705 50.4117 37.7818 51.6209 30.287C52.7894 23.0451 57.9264 17.9946 65.4994 14.4529C73.1026 10.897 82.5513 9.18803 90.8784 8.46293C99.1811 7.73997 105.985 8.02525 108.074 8.2451C108.402 8.27961 109.171 8.51179 110.329 10.6868C111.292 12.4945 112.069 14.764 112.986 17.4441C113.16 17.9528 113.339 18.4763 113.525 19.0143C114.597 22.106 115.942 25.7684 118.02 28.5361C119.101 29.9758 120.494 31.3349 122.311 32.2429C124.174 33.1736 126.257 33.5151 128.488 33.2362C136.829 32.1936 143.318 32.6662 145.986 33.0658C154.594 38.8186 159.283 44.5874 161.51 49.9384C163.772 55.3724 163.658 60.764 161.994 65.9755C159.542 73.6563 153.75 80.8013 147.564 86.2965C147.453 82.9223 146.789 79.8308 145.675 77.2048C143.618 72.3579 139.303 67.903 133.384 68.8136C127.146 69.7732 108.362 70.7671 105.992 70.7671C105.145 70.7671 104.123 71.0021 103.212 71.7194C102.332 72.4129 101.9 73.2863 101.694 73.9525C101.332 75.1256 101.484 76.246 101.582 76.8135C101.808 78.1272 102.365 79.6457 102.924 80.9909C104.092 83.7974 105.799 87.0735 107.002 89.2215L107.207 89.5864L107.482 89.9011C113.326 96.5802 115.826 102.802 116.319 108.401C116.813 114.02 115.319 119.401 112.512 124.43C106.818 134.63 96.0044 142.84 87.6363 147.224L83.4772 149.402L99.8009 171.233C100.155 173.195 99.9414 176.5 98.5277 179.661C97.0284 183.013 94.4026 185.741 90.2159 186.578C86.9183 187.237 85.9092 186.602 85.7931 186.512C85.7771 186.5 85.4069 186.23 85.4897 184.868C85.5721 183.515 86.1011 181.777 86.9657 180.088C87.8455 178.37 88.8419 177.149 89.4988 176.623L92.1723 174.485L78.3118 150.267H60.6759L62.4711 173.285C61.9836 175.693 60.739 179.113 58.5773 181.869C56.3606 184.696 53.3622 186.648 49.1378 186.502C47.9936 186.463 47.2742 186.296 46.8534 186.138C46.6494 186.061 46.5285 185.991 46.4643 185.947C46.4321 185.925 46.412 185.908 46.4008 185.898C46.3898 185.888 46.384 185.881 46.384 185.881L46.3827 185.879C46.3827 185.879 46.3811 185.876 46.3799 185.873C46.3741 185.86 46.3564 185.815 46.3412 185.726C46.3084 185.533 46.2955 185.178 46.3956 184.625C46.8446 182.145 48.95 178.648 51.0888 176.032L51.9923 174.927V152.787L47.1602 147.15L45.856 146.861C26.2796 142.532 16.4318 132.167 11.7572 121.243C8.31268 113.194 7.59628 104.632 8.18509 97.5986C10.52 98.8865 13.0858 99.5908 15.4807 99.9381C20.5277 100.67 25.7005 99.9865 28.9885 99.141L28.9959 99.1391L29.0034 99.1372C50.735 93.4595 61.8447 96.3765 67.1601 100.415C72.4514 104.434 72.9916 110.294 72.1548 113.138C72.1042 113.311 71.6438 114.219 69.0536 115.054C66.6511 115.829 63.3045 116.221 59.5121 116.143C55.7578 116.066 51.7909 115.532 48.2359 114.613C44.6266 113.68 41.7164 112.419 39.8745 111.054L31.9923 105.21L33.5425 114.899C34.5793 121.379 38.7729 125.852 43.0559 128.717C47.3239 131.572 52.0837 133.122 55.2768 133.703L55.5218 133.747L55.7704 133.761C74.1774 134.784 84.9786 130.688 90.0359 123.349C95.0522 116.07 93.2122 107.357 90.5825 102.003L90.4472 101.728L64.7569 64.9556L64.7422 64.9351Z" fill="url(#paint3_linear)"/>
<defs>
<linearGradient id="paint0_linear" x1="56" y1="62" x2="174" y2="192" gradientUnits="userSpaceOnUse">
<stop offset="0.150221" stop-color="#759FAC"/>
<stop offset="0.745367" stop-color="#619EA9"/>
</linearGradient>
<linearGradient id="paint1_linear" x1="56" y1="62" x2="174" y2="192" gradientUnits="userSpaceOnUse">
<stop offset="0.150221" stop-color="#759FAC"/>
<stop offset="0.745367" stop-color="#619EA9"/>
</linearGradient>
<linearGradient id="paint2_linear" x1="56" y1="62" x2="174" y2="192" gradientUnits="userSpaceOnUse">
<stop offset="0.150221" stop-color="#759FAC"/>
<stop offset="0.745367" stop-color="#619EA9"/>
</linearGradient>
<linearGradient id="paint3_linear" x1="56" y1="62" x2="174" y2="192" gradientUnits="userSpaceOnUse">
<stop offset="0.150221" stop-color="#759FAC"/>
<stop offset="0.745367" stop-color="#619EA9"/>
</linearGradient>
</defs>
</svg>
