<svg width="51" height="30" viewBox="0 0 51 30" fill="none" xmlns="http://www.w3.org/2000/svg">
<mask id="path-1-inside-1" fill="white">
<path fill-rule="evenodd" clip-rule="evenodd" d="M12 24C18.6274 24 24 18.6274 24 12C24 5.37258 18.6274 0 12 0C5.37258 0 0 5.37258 0 12C0 18.6274 5.37258 24 12 24ZM16.5 19.5C19.8137 19.5 22.5 16.8137 22.5 13.5C22.5 10.1863 19.8137 7.5 16.5 7.5C13.1863 7.5 10.5 10.1863 10.5 13.5C10.5 16.8137 13.1863 19.5 16.5 19.5Z"/>
</mask>
<path fill-rule="evenodd" clip-rule="evenodd" d="M12 24C18.6274 24 24 18.6274 24 12C24 5.37258 18.6274 0 12 0C5.37258 0 0 5.37258 0 12C0 18.6274 5.37258 24 12 24ZM16.5 19.5C19.8137 19.5 22.5 16.8137 22.5 13.5C22.5 10.1863 19.8137 7.5 16.5 7.5C13.1863 7.5 10.5 10.1863 10.5 13.5C10.5 16.8137 13.1863 19.5 16.5 19.5Z" fill="black"/>
<path d="M22 12C22 17.5228 17.5228 22 12 22V26C19.732 26 26 19.732 26 12H22ZM12 2C17.5228 2 22 6.47715 22 12H26C26 4.26801 19.732 -2 12 -2V2ZM2 12C2 6.47715 6.47715 2 12 2V-2C4.26801 -2 -2 4.26801 -2 12H2ZM12 22C6.47715 22 2 17.5228 2 12H-2C-2 19.732 4.26801 26 12 26V22ZM20.5 13.5C20.5 15.7091 18.7091 17.5 16.5 17.5V21.5C20.9183 21.5 24.5 17.9183 24.5 13.5H20.5ZM16.5 9.5C18.7091 9.5 20.5 11.2909 20.5 13.5H24.5C24.5 9.08172 20.9183 5.5 16.5 5.5V9.5ZM12.5 13.5C12.5 11.2909 14.2909 9.5 16.5 9.5V5.5C12.0817 5.5 8.5 9.08172 8.5 13.5H12.5ZM16.5 17.5C14.2909 17.5 12.5 15.7091 12.5 13.5H8.5C8.5 17.9183 12.0817 21.5 16.5 21.5V17.5Z" fill="black" mask="url(#path-1-inside-1)"/>
<mask id="path-3-inside-2" fill="white">
<path fill-rule="evenodd" clip-rule="evenodd" d="M39 30C45.6274 30 51 24.6274 51 18C51 11.3726 45.6274 6 39 6C32.3726 6 27 11.3726 27 18C27 24.6274 32.3726 30 39 30ZM34 23C37.3137 23 40 20.3137 40 17C40 13.6863 37.3137 11 34 11C30.6863 11 28 13.6863 28 17C28 20.3137 30.6863 23 34 23Z"/>
</mask>
<path fill-rule="evenodd" clip-rule="evenodd" d="M39 30C45.6274 30 51 24.6274 51 18C51 11.3726 45.6274 6 39 6C32.3726 6 27 11.3726 27 18C27 24.6274 32.3726 30 39 30ZM34 23C37.3137 23 40 20.3137 40 17C40 13.6863 37.3137 11 34 11C30.6863 11 28 13.6863 28 17C28 20.3137 30.6863 23 34 23Z" fill="black"/>
<path d="M49 18C49 23.5228 44.5228 28 39 28V32C46.732 32 53 25.732 53 18H49ZM39 8C44.5228 8 49 12.4772 49 18H53C53 10.268 46.732 4 39 4V8ZM29 18C29 12.4772 33.4772 8 39 8V4C31.268 4 25 10.268 25 18H29ZM39 28C33.4772 28 29 23.5228 29 18H25C25 25.732 31.268 32 39 32V28ZM38 17C38 19.2091 36.2091 21 34 21V25C38.4183 25 42 21.4183 42 17H38ZM34 13C36.2091 13 38 14.7909 38 17H42C42 12.5817 38.4183 9 34 9V13ZM30 17C30 14.7909 31.7909 13 34 13V9C29.5817 9 26 12.5817 26 17H30ZM34 21C31.7909 21 30 19.2091 30 17H26C26 21.4183 29.5817 25 34 25V21Z" fill="black" mask="url(#path-3-inside-2)"/>
</svg>
