<svg width="237" height="237" viewBox="0 0 237 237" fill="none" xmlns="http://www.w3.org/2000/svg">
<mask id="path-1-inside-1" fill="white">
<path fill-rule="evenodd" clip-rule="evenodd" d="M237 118.5C237 183.946 183.946 237 118.5 237C53.0543 237 0 183.946 0 118.5C0 53.0543 53.0543 0 118.5 0C183.946 0 237 53.0543 237 118.5ZM124.184 22.4931C132.929 21.7317 140.25 22.0089 142.911 22.289C147.333 22.7545 149.877 26.0848 151.39 28.9255C152.685 31.3559 153.708 34.3616 154.611 37.0126C154.772 37.4864 154.93 37.949 155.084 38.3948C156.2 41.6156 157.199 44.1095 158.417 45.7324C158.985 46.488 159.479 46.8829 159.886 47.0862C160.248 47.2667 160.728 47.394 161.496 47.2979C171.465 46.0519 179.301 46.7496 182.277 47.3447L183.033 47.4959L183.678 47.9173C193.636 54.4159 199.822 61.4776 202.896 68.8644C205.994 76.3075 205.764 83.6784 203.615 90.4086C199.405 103.595 187.797 114.538 178.711 120.595L169.866 126.492L172.63 116.227C174.185 110.452 173.659 105.509 172.31 102.329C170.866 98.9262 169.182 98.6312 168.601 98.7205C163.523 99.5016 151.427 100.263 144.599 100.595C145.528 102.717 146.786 105.152 147.785 106.958C154.352 114.572 157.631 122.23 158.288 129.699C158.953 137.254 156.903 144.229 153.497 150.329C147.725 160.671 137.865 168.866 129.414 174.007L140.703 189.105L141.139 189.687L141.342 190.385C142.479 194.306 142.053 199.959 139.831 204.927C137.533 210.065 133.075 214.965 125.784 216.422C121.578 217.263 117.71 217.023 114.887 214.831C111.955 212.555 111.338 209.126 111.504 206.382C111.673 203.61 112.646 200.785 113.845 198.443C114.47 197.221 115.22 196.009 116.059 194.92L107.673 180.267H103.324L104.488 195.189L104.527 195.685L104.442 196.176C103.857 199.593 102.169 204.602 98.8727 208.806C95.4894 213.12 90.2378 216.752 82.8622 216.498C79.4295 216.379 76.2807 215.444 74.2485 213.015C72.1888 210.553 72.0983 207.549 72.5236 205.2C73.2451 201.215 75.787 197.032 77.9923 194.117V177.747L76.8125 176.37C55.6256 171.317 44.0046 159.482 38.4024 146.391C32.7885 133.272 33.3675 119.274 35.6117 110.297L38.3138 99.4885L43.1037 109.547C44.2784 112.014 46.8502 113.473 50.6289 114.021C54.3696 114.563 58.4422 114.049 60.9881 113.395C83.6524 107.475 97.7907 109.808 106 116.044C114.233 122.3 115.493 131.741 113.83 137.396C112.63 141.473 108.862 143.586 105.509 144.668C101.969 145.81 97.6592 146.23 93.3476 146.141C89.9493 146.071 86.4074 145.682 83.0277 145C85.7151 146.505 88.5296 147.405 90.4741 147.787C107.877 148.71 114.852 144.577 117.449 140.81C120.043 137.045 119.465 131.899 117.529 127.794L92.2275 91.5783C80.2661 74.9026 76.0111 61.6229 77.7231 51.0127C79.4765 40.1453 87.2457 33.352 96.1102 29.2062C104.945 25.0746 115.465 23.2524 124.184 22.4931ZM143.455 97.3699C143.456 97.371 143.459 97.3934 143.462 97.4342C143.455 97.3892 143.454 97.3687 143.455 97.3699ZM85.6209 52.287C84.4117 59.7818 87.2149 70.8705 98.7422 86.9351L98.7569 86.9556L98.7713 86.9762L124.271 123.476L124.447 123.728L124.583 124.003C127.212 129.357 129.052 138.07 124.036 145.349C118.979 152.688 108.177 156.784 89.7704 155.761L89.5218 155.747L89.2768 155.703C86.0837 155.122 81.3238 153.572 77.0559 150.717C72.7729 147.852 68.5793 143.379 67.5425 136.899L65.9923 127.21L73.8745 133.054C75.7164 134.419 78.6266 135.68 82.2359 136.613C85.7909 137.532 89.7578 138.066 93.512 138.143C97.3045 138.221 100.651 137.829 103.054 137.054C105.644 136.219 106.104 135.311 106.155 135.138C106.992 132.294 106.451 126.434 101.16 122.415C95.8447 118.377 84.7351 115.46 63.0034 121.137L62.9959 121.139L62.9885 121.141C59.7005 121.986 54.5277 122.67 49.4807 121.938C47.0857 121.591 44.5199 120.886 42.1851 119.599C41.5963 126.632 42.3127 135.194 45.7572 143.243C50.4317 154.167 60.2796 164.532 79.856 168.861L81.1601 169.15L82.0293 170.164L85.0293 173.664L85.9923 174.787V176.267V195.5V196.927L85.0888 198.032C82.95 200.648 80.8446 204.145 80.3956 206.625C80.2955 207.178 80.3084 207.533 80.3412 207.726C80.3564 207.815 80.3741 207.86 80.3799 207.873C80.382 207.878 80.3834 207.88 80.384 207.881L80.3842 207.882C80.3851 207.883 80.3898 207.888 80.4008 207.898C80.412 207.908 80.4321 207.925 80.4643 207.947C80.5285 207.991 80.6494 208.061 80.8534 208.138C81.2742 208.296 81.9936 208.463 83.1378 208.502C87.3622 208.648 90.3606 206.696 92.5773 203.869C94.739 201.113 95.9836 197.693 96.4711 195.285L95.0121 176.578L94.6759 172.267H99H109.992H112.312L113.464 174.28L124.472 193.513L126.172 196.485L123.499 198.623C122.842 199.149 121.845 200.37 120.966 202.088C120.101 203.777 119.572 205.515 119.49 206.868C119.407 208.23 119.777 208.5 119.793 208.512L119.794 208.512C119.91 208.602 120.918 209.237 124.216 208.578C128.403 207.741 131.028 205.013 132.528 201.661C133.941 198.5 134.155 195.195 133.801 193.233L120.289 175.162L117.477 171.402L121.636 169.224C130.004 164.84 140.818 156.63 146.512 146.43C149.319 141.401 150.813 136.02 150.319 130.401C149.826 124.802 147.326 118.58 141.482 111.901L141.207 111.586L141.002 111.221C139.799 109.074 138.092 105.797 136.924 102.991C136.365 101.646 135.808 100.127 135.582 98.8135C135.484 98.246 135.332 97.1256 135.694 95.9525C135.9 95.2863 136.332 94.4129 137.212 93.7194C138.123 93.0021 139.145 92.7671 139.992 92.7671C142.362 92.7671 161.146 91.7732 167.384 90.8136C173.303 89.903 177.618 94.3579 179.675 99.2048C180.789 101.831 181.453 104.922 181.564 108.296C187.75 102.801 193.542 95.6563 195.994 87.9755C197.658 82.764 197.772 77.3724 195.51 71.9384C193.283 66.5874 188.594 60.8186 179.986 55.0658C177.318 54.6662 170.829 54.1936 162.488 55.2362C160.257 55.5151 158.174 55.1736 156.311 54.2428C154.494 53.3348 153.101 51.9758 152.02 50.5361C149.942 47.7684 148.597 44.106 147.525 41.0143C147.342 40.4857 147.166 39.9711 146.995 39.4707L146.993 39.4658L146.988 39.4521L146.986 39.444C146.069 36.7639 145.292 34.4945 144.329 32.6868C143.171 30.5118 142.402 30.2796 142.074 30.2451C139.985 30.0252 133.181 29.74 124.878 30.4629C116.551 31.188 107.103 32.897 99.4994 36.4529C91.9264 39.9946 86.7894 45.0451 85.6209 52.287ZM166.542 55.4011C169.089 55.2316 171.252 55.2828 172.887 55.4082C172.76 55.4809 172.634 55.5553 172.507 55.6316C171.222 56.4026 170.164 57.2244 169.403 58.2278C168.02 60.0539 167.191 63.0817 169.527 69.1591C172.262 76.2761 170.841 82.1188 167.845 86.8386C167.116 87.9862 166.293 89.0697 165.417 90.0921C163.998 90.3547 161.69 90.6291 159.064 90.8851C161.08 89.0293 163.005 86.9999 164.468 84.695C166.889 80.8803 168.009 76.3586 165.793 70.5942C163.178 63.7902 163.686 59.15 166.215 55.8122C166.322 55.6717 166.431 55.5347 166.542 55.4011ZM118 69C124.627 69 130 63.6274 130 57C130 50.3726 124.627 45 118 45C111.373 45 106 50.3726 106 57C106 63.6274 111.373 69 118 69ZM122.5 64.5C125.814 64.5 128.5 61.8137 128.5 58.5C128.5 55.1863 125.814 52.5 122.5 52.5C119.186 52.5 116.5 55.1863 116.5 58.5C116.5 61.8137 119.186 64.5 122.5 64.5ZM157 63C157 69.6274 151.627 75 145 75C138.373 75 133 69.6274 133 63C133 56.3726 138.373 51 145 51C151.627 51 157 56.3726 157 63ZM146 62C146 65.3137 143.314 68 140 68C136.686 68 134 65.3137 134 62C134 58.6863 136.686 56 140 56C143.314 56 146 58.6863 146 62Z"/>
</mask>
<path fill-rule="evenodd" clip-rule="evenodd" d="M237 118.5C237 183.946 183.946 237 118.5 237C53.0543 237 0 183.946 0 118.5C0 53.0543 53.0543 0 118.5 0C183.946 0 237 53.0543 237 118.5ZM124.184 22.4931C132.929 21.7317 140.25 22.0089 142.911 22.289C147.333 22.7545 149.877 26.0848 151.39 28.9255C152.685 31.3559 153.708 34.3616 154.611 37.0126C154.772 37.4864 154.93 37.949 155.084 38.3948C156.2 41.6156 157.199 44.1095 158.417 45.7324C158.985 46.488 159.479 46.8829 159.886 47.0862C160.248 47.2667 160.728 47.394 161.496 47.2979C171.465 46.0519 179.301 46.7496 182.277 47.3447L183.033 47.4959L183.678 47.9173C193.636 54.4159 199.822 61.4776 202.896 68.8644C205.994 76.3075 205.764 83.6784 203.615 90.4086C199.405 103.595 187.797 114.538 178.711 120.595L169.866 126.492L172.63 116.227C174.185 110.452 173.659 105.509 172.31 102.329C170.866 98.9262 169.182 98.6312 168.601 98.7205C163.523 99.5016 151.427 100.263 144.599 100.595C145.528 102.717 146.786 105.152 147.785 106.958C154.352 114.572 157.631 122.23 158.288 129.699C158.953 137.254 156.903 144.229 153.497 150.329C147.725 160.671 137.865 168.866 129.414 174.007L140.703 189.105L141.139 189.687L141.342 190.385C142.479 194.306 142.053 199.959 139.831 204.927C137.533 210.065 133.075 214.965 125.784 216.422C121.578 217.263 117.71 217.023 114.887 214.831C111.955 212.555 111.338 209.126 111.504 206.382C111.673 203.61 112.646 200.785 113.845 198.443C114.47 197.221 115.22 196.009 116.059 194.92L107.673 180.267H103.324L104.488 195.189L104.527 195.685L104.442 196.176C103.857 199.593 102.169 204.602 98.8727 208.806C95.4894 213.12 90.2378 216.752 82.8622 216.498C79.4295 216.379 76.2807 215.444 74.2485 213.015C72.1888 210.553 72.0983 207.549 72.5236 205.2C73.2451 201.215 75.787 197.032 77.9923 194.117V177.747L76.8125 176.37C55.6256 171.317 44.0046 159.482 38.4024 146.391C32.7885 133.272 33.3675 119.274 35.6117 110.297L38.3138 99.4885L43.1037 109.547C44.2784 112.014 46.8502 113.473 50.6289 114.021C54.3696 114.563 58.4422 114.049 60.9881 113.395C83.6524 107.475 97.7907 109.808 106 116.044C114.233 122.3 115.493 131.741 113.83 137.396C112.63 141.473 108.862 143.586 105.509 144.668C101.969 145.81 97.6592 146.23 93.3476 146.141C89.9493 146.071 86.4074 145.682 83.0277 145C85.7151 146.505 88.5296 147.405 90.4741 147.787C107.877 148.71 114.852 144.577 117.449 140.81C120.043 137.045 119.465 131.899 117.529 127.794L92.2275 91.5783C80.2661 74.9026 76.0111 61.6229 77.7231 51.0127C79.4765 40.1453 87.2457 33.352 96.1102 29.2062C104.945 25.0746 115.465 23.2524 124.184 22.4931ZM143.455 97.3699C143.456 97.371 143.459 97.3934 143.462 97.4342C143.455 97.3892 143.454 97.3687 143.455 97.3699ZM85.6209 52.287C84.4117 59.7818 87.2149 70.8705 98.7422 86.9351L98.7569 86.9556L98.7713 86.9762L124.271 123.476L124.447 123.728L124.583 124.003C127.212 129.357 129.052 138.07 124.036 145.349C118.979 152.688 108.177 156.784 89.7704 155.761L89.5218 155.747L89.2768 155.703C86.0837 155.122 81.3238 153.572 77.0559 150.717C72.7729 147.852 68.5793 143.379 67.5425 136.899L65.9923 127.21L73.8745 133.054C75.7164 134.419 78.6266 135.68 82.2359 136.613C85.7909 137.532 89.7578 138.066 93.512 138.143C97.3045 138.221 100.651 137.829 103.054 137.054C105.644 136.219 106.104 135.311 106.155 135.138C106.992 132.294 106.451 126.434 101.16 122.415C95.8447 118.377 84.7351 115.46 63.0034 121.137L62.9959 121.139L62.9885 121.141C59.7005 121.986 54.5277 122.67 49.4807 121.938C47.0857 121.591 44.5199 120.886 42.1851 119.599C41.5963 126.632 42.3127 135.194 45.7572 143.243C50.4317 154.167 60.2796 164.532 79.856 168.861L81.1601 169.15L82.0293 170.164L85.0293 173.664L85.9923 174.787V176.267V195.5V196.927L85.0888 198.032C82.95 200.648 80.8446 204.145 80.3956 206.625C80.2955 207.178 80.3084 207.533 80.3412 207.726C80.3564 207.815 80.3741 207.86 80.3799 207.873C80.382 207.878 80.3834 207.88 80.384 207.881L80.3842 207.882C80.3851 207.883 80.3898 207.888 80.4008 207.898C80.412 207.908 80.4321 207.925 80.4643 207.947C80.5285 207.991 80.6494 208.061 80.8534 208.138C81.2742 208.296 81.9936 208.463 83.1378 208.502C87.3622 208.648 90.3606 206.696 92.5773 203.869C94.739 201.113 95.9836 197.693 96.4711 195.285L95.0121 176.578L94.6759 172.267H99H109.992H112.312L113.464 174.28L124.472 193.513L126.172 196.485L123.499 198.623C122.842 199.149 121.845 200.37 120.966 202.088C120.101 203.777 119.572 205.515 119.49 206.868C119.407 208.23 119.777 208.5 119.793 208.512L119.794 208.512C119.91 208.602 120.918 209.237 124.216 208.578C128.403 207.741 131.028 205.013 132.528 201.661C133.941 198.5 134.155 195.195 133.801 193.233L120.289 175.162L117.477 171.402L121.636 169.224C130.004 164.84 140.818 156.63 146.512 146.43C149.319 141.401 150.813 136.02 150.319 130.401C149.826 124.802 147.326 118.58 141.482 111.901L141.207 111.586L141.002 111.221C139.799 109.074 138.092 105.797 136.924 102.991C136.365 101.646 135.808 100.127 135.582 98.8135C135.484 98.246 135.332 97.1256 135.694 95.9525C135.9 95.2863 136.332 94.4129 137.212 93.7194C138.123 93.0021 139.145 92.7671 139.992 92.7671C142.362 92.7671 161.146 91.7732 167.384 90.8136C173.303 89.903 177.618 94.3579 179.675 99.2048C180.789 101.831 181.453 104.922 181.564 108.296C187.75 102.801 193.542 95.6563 195.994 87.9755C197.658 82.764 197.772 77.3724 195.51 71.9384C193.283 66.5874 188.594 60.8186 179.986 55.0658C177.318 54.6662 170.829 54.1936 162.488 55.2362C160.257 55.5151 158.174 55.1736 156.311 54.2428C154.494 53.3348 153.101 51.9758 152.02 50.5361C149.942 47.7684 148.597 44.106 147.525 41.0143C147.342 40.4857 147.166 39.9711 146.995 39.4707L146.993 39.4658L146.988 39.4521L146.986 39.444C146.069 36.7639 145.292 34.4945 144.329 32.6868C143.171 30.5118 142.402 30.2796 142.074 30.2451C139.985 30.0252 133.181 29.74 124.878 30.4629C116.551 31.188 107.103 32.897 99.4994 36.4529C91.9264 39.9946 86.7894 45.0451 85.6209 52.287ZM166.542 55.4011C169.089 55.2316 171.252 55.2828 172.887 55.4082C172.76 55.4809 172.634 55.5553 172.507 55.6316C171.222 56.4026 170.164 57.2244 169.403 58.2278C168.02 60.0539 167.191 63.0817 169.527 69.1591C172.262 76.2761 170.841 82.1188 167.845 86.8386C167.116 87.9862 166.293 89.0697 165.417 90.0921C163.998 90.3547 161.69 90.6291 159.064 90.8851C161.08 89.0293 163.005 86.9999 164.468 84.695C166.889 80.8803 168.009 76.3586 165.793 70.5942C163.178 63.7902 163.686 59.15 166.215 55.8122C166.322 55.6717 166.431 55.5347 166.542 55.4011ZM118 69C124.627 69 130 63.6274 130 57C130 50.3726 124.627 45 118 45C111.373 45 106 50.3726 106 57C106 63.6274 111.373 69 118 69ZM122.5 64.5C125.814 64.5 128.5 61.8137 128.5 58.5C128.5 55.1863 125.814 52.5 122.5 52.5C119.186 52.5 116.5 55.1863 116.5 58.5C116.5 61.8137 119.186 64.5 122.5 64.5ZM157 63C157 69.6274 151.627 75 145 75C138.373 75 133 69.6274 133 63C133 56.3726 138.373 51 145 51C151.627 51 157 56.3726 157 63ZM146 62C146 65.3137 143.314 68 140 68C136.686 68 134 65.3137 134 62C134 58.6863 136.686 56 140 56C143.314 56 146 58.6863 146 62Z" fill="url(#paint0_linear)"/>
<path d="M142.911 22.289L143.12 20.3L143.12 20.3L142.911 22.289ZM124.184 22.4931L124.358 24.4855L124.358 24.4855L124.184 22.4931ZM151.39 28.9255L149.625 29.8658L149.625 29.8658L151.39 28.9255ZM154.611 37.0126L156.504 36.3679L156.504 36.3678L154.611 37.0126ZM155.084 38.3948L153.195 39.0497L153.195 39.0497L155.084 38.3948ZM158.417 45.7324L156.818 46.9333L156.818 46.9333L158.417 45.7324ZM159.886 47.0862L160.78 45.297L160.78 45.297L159.886 47.0862ZM161.496 47.2979L161.248 45.3134L161.248 45.3134L161.496 47.2979ZM182.277 47.3447L182.669 45.3836L182.669 45.3836L182.277 47.3447ZM183.033 47.4959L184.126 45.8211L183.803 45.6104L183.425 45.5348L183.033 47.4959ZM183.678 47.9173L182.585 49.5922L182.585 49.5922L183.678 47.9173ZM202.896 68.8644L201.05 69.6329L201.05 69.6329L202.896 68.8644ZM203.615 90.4086L205.521 91.0169L205.521 91.0169L203.615 90.4086ZM178.711 120.595L177.602 118.931L177.602 118.931L178.711 120.595ZM169.866 126.492L167.935 125.972L166.553 131.104L170.976 128.156L169.866 126.492ZM172.63 116.227L174.561 116.747L174.561 116.747L172.63 116.227ZM172.31 102.329L170.469 103.11L170.469 103.11L172.31 102.329ZM168.601 98.7205L168.296 96.7438L168.296 96.7438L168.601 98.7205ZM144.599 100.595L144.502 98.597L141.604 98.7376L142.767 101.396L144.599 100.595ZM147.785 106.958L146.035 107.926L146.135 108.108L146.271 108.264L147.785 106.958ZM158.288 129.699L160.28 129.524L160.28 129.524L158.288 129.699ZM153.497 150.329L155.244 151.304L155.244 151.304L153.497 150.329ZM129.414 174.007L128.375 172.299L126.495 173.442L127.813 175.205L129.414 174.007ZM140.703 189.105L142.305 187.907L142.305 187.907L140.703 189.105ZM141.139 189.687L143.06 189.13L142.958 188.781L142.741 188.489L141.139 189.687ZM141.342 190.385L139.421 190.943L139.421 190.943L141.342 190.385ZM139.831 204.927L138.005 204.11L138.005 204.11L139.831 204.927ZM125.784 216.422L125.392 214.461L125.392 214.461L125.784 216.422ZM114.887 214.831L116.114 213.252L116.114 213.252L114.887 214.831ZM111.504 206.382L109.508 206.261L109.508 206.261L111.504 206.382ZM113.845 198.443L115.625 199.354L115.625 199.354L113.845 198.443ZM116.059 194.92L117.643 196.141L118.458 195.085L117.795 193.927L116.059 194.92ZM107.673 180.267L109.409 179.274L108.833 178.267H107.673V180.267ZM103.324 180.267V178.267H101.162L101.33 180.423L103.324 180.267ZM104.488 195.189L106.482 195.033L106.482 195.033L104.488 195.189ZM104.527 195.685L106.498 196.023L106.54 195.778L106.521 195.53L104.527 195.685ZM104.442 196.176L102.471 195.838L102.471 195.838L104.442 196.176ZM98.8727 208.806L97.2988 207.572L97.2988 207.572L98.8727 208.806ZM82.8622 216.498L82.9311 214.499L82.9311 214.499L82.8622 216.498ZM74.2485 213.015L72.7145 214.299L72.7145 214.299L74.2485 213.015ZM72.5236 205.2L74.4916 205.556L74.4916 205.556L72.5236 205.2ZM77.9923 194.117L79.5872 195.324L79.9923 194.788V194.117H77.9923ZM77.9923 177.747H79.9923V177.007L79.5108 176.445L77.9923 177.747ZM76.8125 176.37L78.331 175.069L77.9083 174.576L77.2765 174.425L76.8125 176.37ZM38.4024 146.391L40.2411 145.604L40.2411 145.604L38.4024 146.391ZM35.6117 110.297L33.6714 109.812L33.6714 109.812L35.6117 110.297ZM38.3138 99.4885L40.1196 98.6286L37.7246 93.5992L36.3736 99.0034L38.3138 99.4885ZM43.1037 109.547L41.298 110.407L41.298 110.407L43.1037 109.547ZM50.6289 114.021L50.9159 112.042L50.9159 112.042L50.6289 114.021ZM60.9881 113.395L61.4853 115.332L61.4935 115.33L60.9881 113.395ZM106 116.044L107.209 114.452L107.209 114.452L106 116.044ZM113.83 137.396L111.911 136.831L111.911 136.831L113.83 137.396ZM105.509 144.668L104.895 142.764L104.895 142.764L105.509 144.668ZM93.3476 146.141L93.3064 148.141L93.3064 148.141L93.3476 146.141ZM83.0277 145L83.4234 143.039L82.0503 146.745L83.0277 145ZM90.4741 147.787L90.0882 149.75L90.227 149.777L90.3683 149.785L90.4741 147.787ZM117.449 140.81L115.802 139.675L115.802 139.675L117.449 140.81ZM117.529 127.794L119.338 126.941L119.265 126.787L119.168 126.648L117.529 127.794ZM92.2275 91.5783L93.867 90.4329L93.8599 90.4227L93.8527 90.4126L92.2275 91.5783ZM77.7231 51.0127L79.6975 51.3313L79.6975 51.3313L77.7231 51.0127ZM96.1102 29.2062L96.9575 31.0179L96.9575 31.0179L96.1102 29.2062ZM143.455 97.3699L142.074 98.8166L142.079 98.8213L143.455 97.3699ZM143.462 97.4342L141.487 97.7498L145.458 97.3096L143.462 97.4342ZM98.7422 86.9351L100.367 85.7693L100.367 85.7691L98.7422 86.9351ZM85.6209 52.287L83.6465 51.9684L83.6465 51.9685L85.6209 52.287ZM98.7569 86.9556L100.396 85.8103L100.389 85.8L100.382 85.7898L98.7569 86.9556ZM98.7713 86.9762L97.1317 88.1215L97.1318 88.1217L98.7713 86.9762ZM124.271 123.476L125.911 122.331L125.911 122.331L124.271 123.476ZM124.447 123.728L126.242 122.846L126.175 122.708L126.087 122.582L124.447 123.728ZM124.583 124.003L126.378 123.122L126.378 123.122L124.583 124.003ZM124.036 145.349L122.389 144.214L122.389 144.214L124.036 145.349ZM89.7704 155.761L89.8814 153.764L89.8813 153.764L89.7704 155.761ZM89.5218 155.747L89.1641 157.715L89.2866 157.737L89.4109 157.744L89.5218 155.747ZM89.2768 155.703L88.919 157.67L88.919 157.67L89.2768 155.703ZM77.0559 150.717L75.9439 152.379L75.9439 152.379L77.0559 150.717ZM67.5425 136.899L69.5174 136.583L69.5174 136.583L67.5425 136.899ZM65.9923 127.21L67.1834 125.603L63.2423 122.682L64.0174 127.526L65.9923 127.21ZM73.8745 133.054L75.0657 131.447L75.0657 131.447L73.8745 133.054ZM82.2359 136.613L82.7366 134.677L82.7366 134.677L82.2359 136.613ZM93.512 138.143L93.4709 140.142L93.4709 140.142L93.512 138.143ZM103.054 137.054L102.44 135.15L102.44 135.15L103.054 137.054ZM106.155 135.138L104.236 134.574L104.236 134.574L106.155 135.138ZM101.16 122.415L99.9502 124.007L99.9502 124.007L101.16 122.415ZM63.0034 121.137L63.5078 123.073L63.509 123.072L63.0034 121.137ZM62.9959 121.139L63.4943 123.076L63.5003 123.074L62.9959 121.139ZM62.9885 121.141L63.4866 123.078L63.4868 123.078L62.9885 121.141ZM49.4807 121.938L49.7678 119.959L49.7678 119.959L49.4807 121.938ZM42.1851 119.599L43.1511 117.847L40.4494 116.357L40.1921 119.432L42.1851 119.599ZM45.7572 143.243L43.9185 144.03L43.9185 144.03L45.7572 143.243ZM79.856 168.861L79.4242 170.814L79.4242 170.814L79.856 168.861ZM81.1601 169.15L82.6787 167.848L82.244 167.341L81.592 167.197L81.1601 169.15ZM82.0293 170.164L80.5108 171.465L80.5108 171.465L82.0293 170.164ZM85.0293 173.664L86.5478 172.362L86.5478 172.362L85.0293 173.664ZM85.9923 174.787H87.9923V174.048L87.5108 173.486L85.9923 174.787ZM85.9923 196.927L87.5406 198.193L87.9923 197.641V196.927H85.9923ZM85.0888 198.032L86.6371 199.298L86.6371 199.298L85.0888 198.032ZM80.3956 206.625L82.3636 206.981L82.3636 206.981L80.3956 206.625ZM80.3412 207.726L78.3694 208.061L78.3694 208.061L80.3412 207.726ZM80.3799 207.873L78.55 208.68L78.5506 208.681L80.3799 207.873ZM80.384 207.881L78.6574 208.891L78.734 209.022L78.8295 209.14L80.384 207.881ZM80.3842 207.882L78.8298 209.14L78.8377 209.15L78.8459 209.16L80.3842 207.882ZM80.4008 207.898L79.0631 209.385L79.0639 209.386L80.4008 207.898ZM80.4643 207.947L81.5896 206.294L81.5895 206.293L80.4643 207.947ZM80.8534 208.138L81.5592 206.266L81.5591 206.266L80.8534 208.138ZM83.1378 208.502L83.0689 210.501L83.0689 210.501L83.1378 208.502ZM92.5773 203.869L91.0035 202.635L91.0035 202.635L92.5773 203.869ZM96.4711 195.285L98.4313 195.682L98.4868 195.409L98.4651 195.13L96.4711 195.285ZM95.0121 176.578L97.0061 176.423L97.0061 176.423L95.0121 176.578ZM94.6759 172.267V170.267H92.5138L92.6819 172.423L94.6759 172.267ZM112.312 172.267L114.048 171.274L113.472 170.267H112.312V172.267ZM113.464 174.28L111.728 175.274L111.728 175.274L113.464 174.28ZM124.472 193.513L122.736 194.507L122.736 194.507L124.472 193.513ZM126.172 196.485L127.422 198.046L128.759 196.977L127.908 195.491L126.172 196.485ZM123.499 198.623L122.249 197.062L122.249 197.062L123.499 198.623ZM120.966 202.088L119.185 201.177L119.185 201.177L120.966 202.088ZM119.49 206.868L117.493 206.746L117.493 206.746L119.49 206.868ZM119.793 208.512L120.976 206.899L120.972 206.896L119.793 208.512ZM119.794 208.512L121.02 206.933L120.998 206.916L120.976 206.9L119.794 208.512ZM124.216 208.578L123.824 206.616L123.824 206.616L124.216 208.578ZM132.528 201.661L134.353 202.477L134.353 202.477L132.528 201.661ZM133.801 193.233L135.769 192.878L135.685 192.413L135.403 192.035L133.801 193.233ZM120.289 175.162L121.891 173.965L121.891 173.965L120.289 175.162ZM117.477 171.402L116.549 169.631L114.47 170.72L115.875 172.6L117.477 171.402ZM121.636 169.224L122.564 170.995L122.564 170.995L121.636 169.224ZM146.512 146.43L144.766 145.455L144.766 145.455L146.512 146.43ZM150.319 130.401L152.311 130.225L152.311 130.225L150.319 130.401ZM141.482 111.901L139.977 113.218L139.977 113.218L141.482 111.901ZM141.207 111.586L139.462 112.564L139.564 112.746L139.701 112.903L141.207 111.586ZM141.002 111.221L142.747 110.244L142.747 110.244L141.002 111.221ZM136.924 102.991L135.078 103.759L135.078 103.759L136.924 102.991ZM135.582 98.8135L137.553 98.4739L137.553 98.4739L135.582 98.8135ZM135.694 95.9525L133.783 95.3621L133.783 95.3621L135.694 95.9525ZM137.212 93.7194L138.45 95.2906L138.45 95.2905L137.212 93.7194ZM167.384 90.8136L167.688 92.7903L167.688 92.7903L167.384 90.8136ZM179.675 99.2048L177.833 99.9859L177.833 99.9859L179.675 99.2048ZM181.564 108.296L179.565 108.362L179.706 112.622L182.893 109.792L181.564 108.296ZM195.994 87.9755L194.089 87.3672L194.089 87.3672L195.994 87.9755ZM195.51 71.9384L197.357 71.1699L197.357 71.1699L195.51 71.9384ZM179.986 55.0658L181.097 53.4029L180.725 53.1541L180.282 53.0878L179.986 55.0658ZM162.488 55.2362L162.737 57.2207L162.737 57.2207L162.488 55.2362ZM156.311 54.2428L155.417 56.032L155.417 56.032L156.311 54.2428ZM152.02 50.5361L150.421 51.737L150.421 51.737L152.02 50.5361ZM147.525 41.0143L149.415 40.3594L149.415 40.3594L147.525 41.0143ZM146.995 39.4707L148.887 38.8232L148.886 38.8203L146.995 39.4707ZM146.993 39.4658L145.102 40.1154L145.102 40.1162L146.993 39.4658ZM146.988 39.4521L145.097 40.1007L145.097 40.1017L146.988 39.4521ZM146.986 39.444L145.093 40.0915L145.094 40.0927L146.986 39.444ZM144.329 32.6868L142.564 33.6271L142.564 33.6271L144.329 32.6868ZM142.074 30.2451L141.864 32.2341L141.864 32.2341L142.074 30.2451ZM124.878 30.4629L124.705 28.4705L124.705 28.4705L124.878 30.4629ZM99.4994 36.4529L100.347 38.2646L99.4994 36.4529ZM172.887 55.4082L173.885 57.1413L179.497 53.9092L173.04 53.414L172.887 55.4082ZM166.542 55.4011L166.41 53.4055L165.556 53.4623L165.008 54.1187L166.542 55.4011ZM172.507 55.6316L173.536 57.3463L173.536 57.3463L172.507 55.6316ZM169.403 58.2278L167.809 57.02L167.809 57.02L169.403 58.2278ZM169.527 69.1591L171.394 68.4416L171.394 68.4416L169.527 69.1591ZM167.845 86.8386L169.533 87.9104L169.533 87.9104L167.845 86.8386ZM165.417 90.0921L165.781 92.0587L166.476 91.9301L166.936 91.3931L165.417 90.0921ZM159.064 90.8851L157.709 89.4137L153.32 93.4546L159.258 92.8757L159.064 90.8851ZM164.468 84.695L162.779 83.6232L162.779 83.6232L164.468 84.695ZM165.793 70.5942L163.926 71.3117L163.926 71.3117L165.793 70.5942ZM166.215 55.8122L164.621 54.6044L164.621 54.6044L166.215 55.8122ZM118.5 239C185.05 239 239 185.05 239 118.5H235C235 182.841 182.841 235 118.5 235V239ZM-2 118.5C-2 185.05 51.9497 239 118.5 239V235C54.1588 235 2 182.841 2 118.5H-2ZM118.5 -2C51.9497 -2 -2 51.9497 -2 118.5H2C2 54.1588 54.1588 2 118.5 2V-2ZM239 118.5C239 51.9497 185.05 -2 118.5 -2V2C182.841 2 235 54.1588 235 118.5H239ZM143.12 20.3C140.316 20.0048 132.865 19.7296 124.011 20.5006L124.358 24.4855C132.992 23.7337 140.183 24.013 142.702 24.2781L143.12 20.3ZM153.155 27.9852C151.557 24.9861 148.571 20.8738 143.12 20.3L142.702 24.2781C146.095 24.6352 148.196 27.1836 149.625 29.8658L153.155 27.9852ZM156.504 36.3678C155.614 33.7544 154.54 30.5854 153.155 27.9852L149.625 29.8658C150.829 32.1263 151.802 34.9688 152.718 37.6573L156.504 36.3678ZM156.974 37.74C156.822 37.3 156.666 36.8427 156.504 36.3679L152.718 37.6573C152.879 38.1302 153.038 38.5979 153.195 39.0497L156.974 37.74ZM160.017 44.5315C159.014 43.1961 158.103 40.9972 156.974 37.74L153.195 39.0497C154.298 42.2339 155.384 45.0229 156.818 46.9333L160.017 44.5315ZM160.78 45.297C160.725 45.2695 160.455 45.1153 160.017 44.5315L156.818 46.9333C157.515 47.8607 158.234 48.4962 158.993 48.8753L160.78 45.297ZM161.248 45.3134C161.024 45.3414 160.906 45.3291 160.859 45.3216C160.819 45.3152 160.801 45.3076 160.78 45.297L158.993 48.8753C159.728 49.2429 160.609 49.4244 161.744 49.2825L161.248 45.3134ZM182.669 45.3836C179.456 44.7409 171.401 44.0443 161.248 45.3134L161.744 49.2825C171.528 48.0595 179.147 48.7583 181.885 49.3059L182.669 45.3836ZM183.425 45.5348L182.669 45.3836L181.885 49.3059L182.641 49.4571L183.425 45.5348ZM184.772 46.2424L184.126 45.8211L181.94 49.1708L182.585 49.5922L184.772 46.2424ZM204.743 68.096C201.471 60.2347 194.958 52.8902 184.772 46.2424L182.585 49.5922C192.314 55.9416 198.173 62.7204 201.05 69.6329L204.743 68.096ZM205.521 91.0169C207.79 83.9074 208.05 76.0417 204.743 68.096L201.05 69.6329C203.938 76.5734 203.738 83.4494 201.71 89.8003L205.521 91.0169ZM179.82 122.259C189.074 116.09 201.112 104.826 205.521 91.0169L201.71 89.8003C197.699 102.364 186.52 112.986 177.602 118.931L179.82 122.259ZM170.976 128.156L179.82 122.259L177.602 118.931L168.757 124.828L170.976 128.156ZM170.699 115.707L167.935 125.972L171.798 127.012L174.561 116.747L170.699 115.707ZM170.469 103.11C171.617 105.818 172.156 110.296 170.699 115.707L174.561 116.747C176.214 110.609 175.7 105.2 174.151 101.548L170.469 103.11ZM168.905 100.697C168.218 100.803 169.215 100.156 170.469 103.11L174.151 101.548C172.517 97.6966 170.145 96.4594 168.296 96.7438L168.905 100.697ZM144.696 102.592C151.499 102.262 163.705 101.497 168.905 100.697L168.296 96.7438C163.342 97.5061 151.354 98.2647 144.502 98.597L144.696 102.592ZM149.535 105.99C148.553 104.215 147.327 101.839 146.432 99.7931L142.767 101.396C143.729 103.595 145.018 106.088 146.035 107.926L149.535 105.99ZM160.28 129.524C159.58 121.568 156.091 113.526 149.299 105.652L146.271 108.264C152.613 115.618 155.681 122.892 156.296 129.875L160.28 129.524ZM155.244 151.304C158.798 144.937 160.988 137.563 160.28 129.524L156.296 129.875C156.918 136.945 155.007 143.522 151.751 149.354L155.244 151.304ZM130.454 175.716C139.07 170.474 149.242 162.057 155.244 151.304L151.751 149.354C146.207 159.285 136.66 167.258 128.375 172.299L130.454 175.716ZM142.305 187.907L131.016 172.81L127.813 175.205L139.102 190.302L142.305 187.907ZM142.741 188.489L142.305 187.907L139.102 190.302L139.537 190.885L142.741 188.489ZM143.262 189.828L143.06 189.13L139.218 190.244L139.421 190.943L143.262 189.828ZM141.656 205.743C144.04 200.414 144.552 194.273 143.262 189.828L139.421 190.943C140.406 194.338 140.065 199.503 138.005 204.11L141.656 205.743ZM126.176 218.384C134.245 216.771 139.16 211.325 141.656 205.743L138.005 204.11C135.905 208.805 131.905 213.159 125.392 214.461L126.176 218.384ZM113.661 216.411C117.162 219.129 121.747 219.269 126.176 218.384L125.392 214.461C121.409 215.257 118.257 214.916 116.114 213.252L113.661 216.411ZM109.508 206.261C109.321 209.335 109.992 213.562 113.661 216.411L116.114 213.252C113.919 211.547 113.354 208.917 113.501 206.504L109.508 206.261ZM112.064 197.532C110.782 200.037 109.698 203.134 109.508 206.261L113.501 206.504C113.648 204.086 114.509 201.533 115.625 199.354L112.064 197.532ZM114.475 193.699C113.552 194.897 112.738 196.215 112.064 197.532L115.625 199.354C116.201 198.228 116.887 197.122 117.643 196.141L114.475 193.699ZM105.937 181.261L114.323 195.914L117.795 193.927L109.409 179.274L105.937 181.261ZM103.324 182.267H107.673V178.267H103.324V182.267ZM106.482 195.033L105.318 180.112L101.33 180.423L102.494 195.344L106.482 195.033ZM106.521 195.53L106.482 195.033L102.494 195.344L102.533 195.841L106.521 195.53ZM106.414 196.514L106.498 196.023L102.555 195.347L102.471 195.838L106.414 196.514ZM100.447 210.04C103.991 205.52 105.785 200.18 106.414 196.514L102.471 195.838C101.928 199.005 100.347 203.684 97.2988 207.572L100.447 210.04ZM82.7932 218.496C90.9591 218.778 96.7735 214.724 100.447 210.04L97.2988 207.572C94.2054 211.517 89.5165 214.726 82.9311 214.499L82.7932 218.496ZM72.7145 214.299C75.2702 217.353 79.0993 218.369 82.7932 218.496L82.9311 214.499C79.7598 214.389 77.2913 213.535 75.7824 211.732L72.7145 214.299ZM70.5556 204.844C70.0778 207.483 70.1168 211.194 72.7145 214.299L75.7824 211.732C74.2608 209.913 74.1187 207.616 74.4916 205.556L70.5556 204.844ZM76.3974 192.91C74.1351 195.9 71.362 200.389 70.5556 204.844L74.4916 205.556C75.1281 202.041 77.439 198.163 79.5872 195.324L76.3974 192.91ZM75.9923 177.747V194.117H79.9923V177.747H75.9923ZM75.294 177.672L76.4738 179.048L79.5108 176.445L78.331 175.069L75.294 177.672ZM36.5637 147.178C42.4198 160.862 54.5578 173.118 76.3485 178.316L77.2765 174.425C56.6934 169.516 45.5894 158.102 40.2411 145.604L36.5637 147.178ZM33.6714 109.812C31.3469 119.11 30.7407 133.57 36.5637 147.178L40.2411 145.604C34.8363 132.974 35.3882 119.437 37.552 110.782L33.6714 109.812ZM36.3736 99.0034L33.6714 109.812L37.552 110.782L40.2541 99.9736L36.3736 99.0034ZM44.9095 108.687L40.1196 98.6286L36.5081 100.348L41.298 110.407L44.9095 108.687ZM50.9159 112.042C47.4579 111.54 45.6749 110.295 44.9095 108.687L41.298 110.407C42.8818 113.733 46.2426 115.406 50.3418 116L50.9159 112.042ZM60.4908 111.458C58.1303 112.064 54.3313 112.537 50.9159 112.042L50.3418 116C54.4078 116.59 58.754 116.033 61.4853 115.332L60.4908 111.458ZM107.209 114.452C98.2764 107.665 83.3797 105.479 60.4826 111.46L61.4935 115.33C83.9252 109.471 97.3051 111.951 104.79 117.637L107.209 114.452ZM115.748 137.96C117.618 131.605 116.181 121.268 107.209 114.452L104.79 117.637C112.286 123.332 113.369 131.876 111.911 136.831L115.748 137.96ZM106.123 146.571C109.658 145.431 114.261 143.019 115.748 137.96L111.911 136.831C111 139.928 108.066 141.742 104.895 142.764L106.123 146.571ZM93.3064 148.141C97.748 148.232 102.298 147.805 106.123 146.571L104.895 142.764C101.639 143.814 97.5705 144.228 93.3887 144.142L93.3064 148.141ZM82.632 146.96C86.1283 147.666 89.7888 148.068 93.3064 148.141L93.3887 144.142C90.1098 144.074 86.6866 143.698 83.4234 143.039L82.632 146.96ZM90.86 145.825C89.1028 145.479 86.491 144.647 84.005 143.255L82.0503 146.745C84.9393 148.363 87.9564 149.33 90.0882 149.75L90.86 145.825ZM115.802 139.675C113.813 142.561 107.771 146.701 90.5799 145.79L90.3683 149.785C107.982 150.718 115.892 146.594 119.095 141.945L115.802 139.675ZM115.72 128.647C117.509 132.439 117.821 136.745 115.802 139.675L119.095 141.945C122.266 137.344 121.422 131.36 119.338 126.941L115.72 128.647ZM90.588 92.7237L115.889 128.939L119.168 126.648L93.867 90.4329L90.588 92.7237ZM75.7486 50.6942C73.9108 62.0844 78.5299 75.9135 90.6024 92.744L93.8527 90.4126C82.0024 73.8918 78.1115 61.1615 79.6975 51.3313L75.7486 50.6942ZM95.263 27.3946C86.0786 31.6899 77.6486 38.918 75.7486 50.6942L79.6975 51.3313C81.3043 41.3725 88.4129 35.0141 96.9575 31.0179L95.263 27.3946ZM124.011 20.5006C115.193 21.2685 104.405 23.119 95.263 27.3946L96.9575 31.0179C105.484 27.0302 115.736 25.2363 124.358 24.4855L124.011 20.5006ZM142.079 98.8213C141.854 98.6087 141.736 98.3954 141.696 98.3219C141.643 98.2235 141.609 98.1406 141.59 98.0938C141.554 97.9996 141.533 97.9232 141.524 97.8906C141.504 97.8185 141.494 97.7616 141.49 97.7406C141.48 97.6898 141.475 97.6511 141.473 97.6352C141.469 97.597 141.467 97.5707 141.466 97.5588L145.458 97.3096C145.455 97.2569 145.45 97.199 145.442 97.1391C145.439 97.1124 145.433 97.0653 145.422 97.0087C145.418 96.9848 145.406 96.9256 145.387 96.8519C145.378 96.8186 145.356 96.7415 145.32 96.6468C145.301 96.5998 145.267 96.5167 145.214 96.4182C145.174 96.3445 145.055 96.1311 144.831 95.9185L142.079 98.8213ZM145.437 97.1185C145.437 97.1205 145.441 97.1446 145.445 97.1842C145.446 97.1967 145.452 97.2494 145.454 97.3197C145.454 97.3325 145.459 97.4533 145.441 97.605C145.435 97.6505 145.425 97.7283 145.402 97.8233C145.385 97.8975 145.337 98.0935 145.215 98.3191C145.129 98.479 144.756 99.1261 143.896 99.3206C142.937 99.5373 142.277 99.0105 142.074 98.8166L144.836 95.9232C144.632 95.7292 143.972 95.2024 143.014 95.419C142.153 95.6135 141.78 96.2607 141.694 96.4207C141.572 96.6464 141.524 96.8426 141.506 96.9169C141.484 97.0121 141.474 97.0901 141.468 97.1359C141.45 97.2887 141.455 97.4113 141.455 97.4265C141.457 97.5018 141.463 97.5622 141.465 97.5853C141.471 97.6461 141.48 97.7028 141.487 97.7498L145.437 97.1185ZM100.367 85.7691C88.9517 69.8603 86.5119 59.3208 87.5954 52.6056L83.6465 51.9685C82.3114 60.2428 85.4782 71.8807 97.1173 88.1011L100.367 85.7691ZM100.382 85.7898L100.367 85.7693L97.1171 88.1008L97.1318 88.1213L100.382 85.7898ZM100.411 85.8309L100.396 85.8103L97.1173 88.1009L97.1317 88.1215L100.411 85.8309ZM125.911 122.331L100.411 85.8308L97.1318 88.1217L122.632 124.622L125.911 122.331ZM126.087 122.582L125.911 122.331L122.632 124.622L122.808 124.873L126.087 122.582ZM126.378 123.122L126.242 122.846L122.652 124.61L122.787 124.885L126.378 123.122ZM125.683 146.484C131.293 138.343 129.152 128.77 126.378 123.122L122.787 124.885C125.272 129.943 126.811 137.798 122.389 144.214L125.683 146.484ZM89.6595 157.758C108.266 158.792 120.012 154.713 125.683 146.484L122.389 144.214C117.945 150.663 108.089 154.775 89.8814 153.764L89.6595 157.758ZM89.4109 157.744L89.6595 157.758L89.8813 153.764L89.6327 153.75L89.4109 157.744ZM88.919 157.67L89.1641 157.715L89.8795 153.779L89.6345 153.735L88.919 157.67ZM75.9439 152.379C80.4772 155.412 85.5045 157.049 88.919 157.67L89.6345 153.735C86.6629 153.195 82.1705 151.732 78.1678 149.054L75.9439 152.379ZM65.5677 137.215C66.7231 144.437 71.3901 149.333 75.9439 152.379L78.1678 149.054C74.1556 146.371 70.4356 142.321 69.5174 136.583L65.5677 137.215ZM64.0174 127.526L65.5677 137.215L69.5174 136.583L67.9672 126.894L64.0174 127.526ZM75.0657 131.447L67.1834 125.603L64.8012 128.817L72.6834 134.66L75.0657 131.447ZM82.7366 134.677C79.256 133.777 76.6199 132.6 75.0657 131.447L72.6834 134.66C74.8128 136.239 77.9972 137.583 81.7352 138.55L82.7366 134.677ZM93.5532 136.143C89.9479 136.069 86.1355 135.556 82.7366 134.677L81.7352 138.55C85.4463 139.509 89.5678 140.062 93.4709 140.142L93.5532 136.143ZM102.44 135.15C100.322 135.834 97.216 136.219 93.5532 136.143L93.4709 140.142C97.3931 140.223 100.98 139.824 103.667 138.957L102.44 135.15ZM104.236 134.574C104.36 134.152 104.541 134.1 104.314 134.28C104.106 134.445 103.576 134.784 102.44 135.15L103.667 138.957C106.476 138.052 107.741 136.835 108.074 135.703L104.236 134.574ZM99.9502 124.007C104.51 127.471 104.865 132.437 104.236 134.574L108.074 135.703C109.118 132.15 108.393 125.398 102.37 120.822L99.9502 124.007ZM63.509 123.072C85.0046 117.456 95.3575 120.518 99.9502 124.007L102.37 120.822C96.3319 116.235 84.4655 113.463 62.4979 119.202L63.509 123.072ZM63.5003 123.074L63.5078 123.073L62.499 119.202L62.4916 119.204L63.5003 123.074ZM63.4868 123.078L63.4943 123.076L62.4976 119.202L62.4902 119.204L63.4868 123.078ZM49.1937 123.917C54.5663 124.697 60.013 123.971 63.4866 123.078L62.4904 119.204C59.388 120.002 54.4891 120.644 49.7678 119.959L49.1937 123.917ZM41.2191 121.35C43.8192 122.784 46.6311 123.546 49.1937 123.917L49.7678 119.959C47.5404 119.636 45.2206 118.989 43.1511 117.847L41.2191 121.35ZM47.5959 142.457C44.3086 134.775 43.6098 126.554 44.1781 119.765L40.1921 119.432C39.5828 126.71 40.3168 135.614 43.9185 144.03L47.5959 142.457ZM80.2879 166.909C61.3234 162.715 52.0099 152.771 47.5959 142.457L43.9185 144.03C48.8536 155.563 59.2358 166.35 79.4242 170.814L80.2879 166.909ZM81.592 167.197L80.2879 166.909L79.4242 170.814L80.7283 171.103L81.592 167.197ZM83.5478 168.862L82.6787 167.848L79.6416 170.451L80.5108 171.465L83.5478 168.862ZM86.5478 172.362L83.5478 168.862L80.5108 171.465L83.5108 174.965L86.5478 172.362ZM87.5108 173.486L86.5478 172.362L83.5108 174.965L84.4738 176.089L87.5108 173.486ZM87.9923 176.267V174.787H83.9923V176.267H87.9923ZM87.9923 195.5V176.267H83.9923V195.5H87.9923ZM87.9923 196.927V195.5H83.9923V196.927H87.9923ZM86.6371 199.298L87.5406 198.193L84.444 195.661L83.5406 196.766L86.6371 199.298ZM82.3636 206.981C82.5304 206.06 83.0466 204.792 83.8518 203.36C84.6403 201.957 85.6345 200.524 86.6371 199.298L83.5406 196.766C82.4043 198.156 81.2764 199.779 80.3653 201.399C79.4708 202.99 78.7099 204.71 78.4276 206.269L82.3636 206.981ZM82.3129 207.391C82.3221 207.445 82.3156 207.441 82.3177 207.368C82.3197 207.297 82.3294 207.17 82.3636 206.981L78.4276 206.269C78.298 206.985 78.2879 207.581 78.3694 208.061L82.3129 207.391ZM82.2098 207.066C82.2765 207.217 82.3031 207.333 82.3129 207.391L78.3694 208.061C78.4097 208.298 78.4717 208.503 78.55 208.68L82.2098 207.066ZM82.1106 206.872C82.129 206.904 82.1431 206.93 82.1516 206.946C82.161 206.964 82.1691 206.98 82.1758 206.993C82.1892 207.02 82.2003 207.044 82.2093 207.065L78.5506 208.681C78.5662 208.717 78.6024 208.797 78.6574 208.891L82.1106 206.872ZM81.9387 206.623L81.9385 206.623L78.8295 209.14L78.8298 209.14L81.9387 206.623ZM81.7386 206.411C81.7947 206.462 81.8578 206.526 81.9226 206.604L78.8459 209.16C78.9123 209.24 78.9849 209.315 79.0631 209.385L81.7386 206.411ZM81.5895 206.293C81.6293 206.32 81.6802 206.359 81.7378 206.411L79.0639 209.386C79.1438 209.458 79.2348 209.529 79.3391 209.6L81.5895 206.293ZM81.5591 206.266C81.4869 206.239 81.5095 206.239 81.5896 206.294L79.339 209.6C79.5475 209.742 79.8119 209.882 80.1476 210.009L81.5591 206.266ZM83.2068 206.504C82.2154 206.469 81.7231 206.328 81.5592 206.266L80.1475 210.009C80.8253 210.265 81.7718 210.456 83.0689 210.501L83.2068 206.504ZM91.0035 202.635C89.0815 205.086 86.6475 206.622 83.2068 206.504L83.0689 210.501C88.077 210.674 91.6397 208.306 94.1512 205.103L91.0035 202.635ZM94.5109 194.888C94.0691 197.07 92.9285 200.18 91.0035 202.635L94.1512 205.103C96.5495 202.045 97.898 198.316 98.4313 195.682L94.5109 194.888ZM93.0182 176.734L94.4772 195.441L98.4651 195.13L97.0061 176.423L93.0182 176.734ZM92.6819 172.423L93.0182 176.734L97.0061 176.423L96.6698 172.112L92.6819 172.423ZM99 170.267H94.6759V174.267H99V170.267ZM109.992 170.267H99V174.267H109.992V170.267ZM112.312 170.267H109.992V174.267H112.312V170.267ZM115.2 173.287L114.048 171.274L110.576 173.261L111.728 175.274L115.2 173.287ZM126.207 192.52L115.2 173.287L111.728 175.274L122.736 194.507L126.207 192.52ZM127.908 195.491L126.207 192.52L122.736 194.507L124.437 197.478L127.908 195.491ZM124.748 200.185L127.422 198.046L124.923 194.923L122.249 197.062L124.748 200.185ZM122.746 203C123.55 201.43 124.388 200.474 124.748 200.185L122.249 197.062C121.296 197.825 120.141 199.31 119.185 201.177L122.746 203ZM121.486 206.989C121.547 205.991 121.965 204.525 122.746 203L119.185 201.177C118.237 203.029 117.597 205.039 117.493 206.746L121.486 206.989ZM120.972 206.896C120.972 206.896 120.974 206.898 120.976 206.899C120.978 206.901 120.981 206.903 120.984 206.906C120.991 206.911 120.999 206.917 121.008 206.923C121.025 206.936 121.042 206.95 121.061 206.965C121.097 206.995 121.132 207.027 121.166 207.059C121.233 207.125 121.289 207.19 121.336 207.253C121.43 207.38 121.473 207.483 121.491 207.533C121.522 207.62 121.455 207.497 121.486 206.989L117.493 206.746C117.39 208.453 117.822 209.55 118.614 210.128L120.972 206.896ZM120.976 206.9L120.976 206.899L118.61 210.125L118.611 210.125L120.976 206.9ZM123.824 206.616C120.765 207.228 120.466 206.502 121.02 206.933L118.567 210.092C119.354 210.703 121.071 211.246 124.608 210.539L123.824 206.616ZM130.702 200.844C129.404 203.746 127.239 205.934 123.824 206.616L124.608 210.539C129.567 209.548 132.652 206.28 134.353 202.477L130.702 200.844ZM131.833 193.587C132.113 195.141 131.957 198.038 130.702 200.844L134.353 202.477C135.926 198.961 136.197 195.25 135.769 192.878L131.833 193.587ZM118.687 176.36L132.199 194.43L135.403 192.035L121.891 173.965L118.687 176.36ZM115.875 172.6L118.687 176.36L121.891 173.965L119.079 170.205L115.875 172.6ZM120.708 167.452L116.549 169.631L118.405 173.174L122.564 170.995L120.708 167.452ZM144.766 145.455C139.331 155.191 128.885 163.169 120.708 167.452L122.564 170.995C131.123 166.512 142.305 158.069 148.258 147.405L144.766 145.455ZM148.326 130.576C148.778 135.711 147.423 140.694 144.766 145.455L148.258 147.405C151.215 142.108 152.848 136.328 152.311 130.225L148.326 130.576ZM139.977 113.218C145.593 119.636 147.877 125.472 148.326 130.576L152.311 130.225C151.775 124.133 149.059 117.524 142.987 110.584L139.977 113.218ZM139.701 112.903L139.977 113.218L142.987 110.584L142.712 110.269L139.701 112.903ZM139.257 112.199L139.462 112.564L142.952 110.609L142.747 110.244L139.257 112.199ZM135.078 103.759C136.287 106.667 138.036 110.018 139.257 112.199L142.747 110.244C141.563 108.129 139.896 104.928 138.771 102.223L135.078 103.759ZM133.611 99.1531C133.877 100.7 134.508 102.391 135.078 103.759L138.771 102.223C138.221 100.901 137.739 99.5547 137.553 98.4739L133.611 99.1531ZM133.783 95.3621C133.277 97.0009 133.5 98.5078 133.611 99.1531L137.553 98.4739C137.468 97.9842 137.386 97.2503 137.605 96.5429L133.783 95.3621ZM135.975 92.1483C134.692 93.1588 134.073 94.4245 133.783 95.3621L137.605 96.5429C137.727 96.148 137.972 95.6669 138.45 95.2906L135.975 92.1483ZM139.992 90.7671C138.787 90.7671 137.304 91.1018 135.975 92.1483L138.45 95.2905C138.943 94.9025 139.503 94.7671 139.992 94.7671V90.7671ZM167.08 88.8368C160.973 89.7763 142.296 90.7671 139.992 90.7671V94.7671C142.427 94.7671 161.319 93.7701 167.688 92.7903L167.08 88.8368ZM181.516 98.4238C179.318 93.244 174.354 87.7177 167.08 88.8368L167.688 92.7903C172.252 92.0882 175.918 95.4718 177.833 99.9859L181.516 98.4238ZM183.563 108.231C183.445 104.639 182.737 101.302 181.516 98.4238L177.833 99.9859C178.841 102.36 179.461 105.205 179.565 108.362L183.563 108.231ZM194.089 87.3672C191.79 94.5696 186.286 101.427 180.236 106.801L182.893 109.792C189.215 104.176 195.295 96.743 197.9 88.5838L194.089 87.3672ZM193.664 72.7069C195.717 77.6391 195.631 82.536 194.089 87.3672L197.9 88.5838C199.685 82.992 199.827 77.1057 197.357 71.1699L193.664 72.7069ZM178.875 56.7286C187.256 62.3297 191.629 67.8178 193.664 72.7069L197.357 71.1699C194.937 65.3571 189.933 59.3076 181.097 53.4029L178.875 56.7286ZM162.737 57.2207C170.895 56.2009 177.201 56.671 179.69 57.0437L180.282 53.0878C177.435 52.6614 170.763 52.1863 162.24 53.2516L162.737 57.2207ZM155.417 56.032C157.656 57.1505 160.139 57.5454 162.737 57.2207L162.24 53.2516C160.374 53.4849 158.692 53.1968 157.205 52.4537L155.417 56.032ZM150.421 51.737C151.63 53.3475 153.247 54.9477 155.417 56.032L157.205 52.4537C155.74 51.722 154.572 50.6041 153.62 49.3351L150.421 51.737ZM145.636 41.6691C146.697 44.7318 148.129 48.6841 150.421 51.737L153.62 49.3352C151.755 46.8527 150.497 43.4802 149.415 40.3594L145.636 41.6691ZM145.103 40.1182C145.274 40.618 145.451 41.1363 145.636 41.6692L149.415 40.3594C149.233 39.8351 149.059 39.3241 148.887 38.8232L145.103 40.1182ZM145.102 40.1162L145.104 40.1212L148.886 38.8203L148.884 38.8153L145.102 40.1162ZM145.097 40.1017L145.102 40.1154L148.885 38.8162L148.88 38.8024L145.097 40.1017ZM145.094 40.0927L145.097 40.1007L148.88 38.8034L148.878 38.7954L145.094 40.0927ZM142.564 33.6271C143.436 35.2632 144.159 37.3618 145.093 40.0915L148.878 38.7966C147.978 36.166 147.149 33.7257 146.094 31.7464L142.564 33.6271ZM141.864 32.2341C141.773 32.2245 141.674 32.2006 141.589 32.1628C141.514 32.1296 141.508 32.1108 141.565 32.1617C141.698 32.2789 142.046 32.6546 142.564 33.6271L146.094 31.7464C144.831 29.3758 143.615 28.3963 142.283 28.2561L141.864 32.2341ZM125.052 32.4554C133.244 31.742 139.919 32.0293 141.864 32.2341L142.283 28.2561C140.051 28.0211 133.118 27.7379 124.705 28.4705L125.052 32.4554ZM100.347 38.2646C107.642 34.8527 116.823 33.1719 125.052 32.4554L124.705 28.4705C116.28 29.2041 106.563 30.9414 98.6521 34.6412L100.347 38.2646ZM87.5954 52.6056C88.6181 46.2669 93.1006 41.6534 100.347 38.2646L98.6521 34.6412C90.7521 38.3359 84.9606 43.8233 83.6465 51.9684L87.5954 52.6056ZM173.04 53.414C171.315 53.2818 169.057 53.2294 166.41 53.4055L166.675 57.3967C169.122 57.2339 171.19 57.2839 172.734 57.4023L173.04 53.414ZM173.536 57.3463C173.652 57.2767 173.768 57.2085 173.885 57.1413L171.889 53.675C171.752 53.7534 171.615 53.8339 171.477 53.9168L173.536 57.3463ZM170.998 59.4356C171.54 58.7199 172.357 58.0543 173.536 57.3463L171.477 53.9168C170.088 54.7509 168.788 55.7288 167.809 57.02L170.998 59.4356ZM171.394 68.4416C169.199 62.7325 170.184 60.509 170.998 59.4356L167.809 57.02C165.855 59.5988 165.182 63.4309 167.66 69.8766L171.394 68.4416ZM169.533 87.9104C172.816 82.7389 174.389 76.2355 171.394 68.4416L167.66 69.8766C170.135 76.3166 168.865 81.4988 166.156 85.7668L169.533 87.9104ZM166.936 91.3931C167.862 90.312 168.745 89.152 169.533 87.9104L166.156 85.7668C165.488 86.8203 164.723 87.8275 163.898 88.791L166.936 91.3931ZM159.258 92.8757C161.885 92.6195 164.269 92.3384 165.781 92.0587L165.053 88.1254C163.726 88.3709 161.495 88.6386 158.87 88.8946L159.258 92.8757ZM162.779 83.6232C161.45 85.717 159.668 87.6105 157.709 89.4137L160.419 92.3565C162.491 90.4481 164.559 88.2827 166.156 85.7668L162.779 83.6232ZM163.926 71.3117C165.882 76.4008 164.913 80.2619 162.779 83.6232L166.156 85.7668C168.865 81.4986 170.135 76.3164 167.66 69.8766L163.926 71.3117ZM164.621 54.6044C161.518 58.7003 161.173 64.1481 163.926 71.3117L167.66 69.8766C165.183 63.4323 165.855 59.5997 167.809 57.02L164.621 54.6044ZM165.008 54.1187C164.876 54.276 164.747 54.4379 164.621 54.6044L167.809 57.02C167.896 56.9055 167.985 56.7934 168.077 56.6835L165.008 54.1187ZM128 57C128 62.5228 123.523 67 118 67V71C125.732 71 132 64.732 132 57H128ZM118 47C123.523 47 128 51.4772 128 57H132C132 49.268 125.732 43 118 43V47ZM108 57C108 51.4772 112.477 47 118 47V43C110.268 43 104 49.268 104 57H108ZM118 67C112.477 67 108 62.5228 108 57H104C104 64.732 110.268 71 118 71V67ZM126.5 58.5C126.5 60.7091 124.709 62.5 122.5 62.5V66.5C126.918 66.5 130.5 62.9183 130.5 58.5H126.5ZM122.5 54.5C124.709 54.5 126.5 56.2909 126.5 58.5H130.5C130.5 54.0817 126.918 50.5 122.5 50.5V54.5ZM118.5 58.5C118.5 56.2909 120.291 54.5 122.5 54.5V50.5C118.082 50.5 114.5 54.0817 114.5 58.5H118.5ZM122.5 62.5C120.291 62.5 118.5 60.7091 118.5 58.5H114.5C114.5 62.9183 118.082 66.5 122.5 66.5V62.5ZM145 77C152.732 77 159 70.732 159 63H155C155 68.5228 150.523 73 145 73V77ZM131 63C131 70.732 137.268 77 145 77V73C139.477 73 135 68.5228 135 63H131ZM145 49C137.268 49 131 55.268 131 63H135C135 57.4772 139.477 53 145 53V49ZM159 63C159 55.268 152.732 49 145 49V53C150.523 53 155 57.4772 155 63H159ZM140 70C144.418 70 148 66.4183 148 62H144C144 64.2091 142.209 66 140 66V70ZM132 62C132 66.4183 135.582 70 140 70V66C137.791 66 136 64.2091 136 62H132ZM140 54C135.582 54 132 57.5817 132 62H136C136 59.7909 137.791 58 140 58V54ZM148 62C148 57.5817 144.418 54 140 54V58C142.209 58 144 59.7909 144 62H148Z" fill="url(#paint1_linear)" mask="url(#path-1-inside-1)"/>
<defs>
<linearGradient id="paint0_linear" x1="145" y1="51" x2="145" y2="75" gradientUnits="userSpaceOnUse">
<stop stop-color="#426F77"/>
<stop offset="1" stop-color="#41636D"/>
</linearGradient>
<linearGradient id="paint1_linear" x1="145" y1="51" x2="145" y2="75" gradientUnits="userSpaceOnUse">
<stop stop-color="#426F77"/>
<stop offset="1" stop-color="#41636D"/>
</linearGradient>
</defs>
</svg>
